inDegrees=yes
name=IK-live
DataType=double
version=3
OpenSimVersion=4.1
endheader
time	pelvis_tilt	pelvis_list	pelvis_rotation	pelvis_tx	pelvis_ty	pelvis_tz	hip_flexion_r	hip_adduction_r	hip_rotation_r	knee_angle_r	ankle_angle_r	subtalar_angle_r	mtp_angle_r	hip_flexion_l	hip_adduction_l	hip_rotation_l	knee_angle_l	ankle_angle_l	subtalar_angle_l	mtp_angle_l	lumbar_extension	lumbar_bending	lumbar_rotation	neck_flex	neck_latbend	neck_rot	arm_flex_r	arm_add_r	arm_rot_r	elbow_flex_r	pro_sup_r	wrist_flex_r	wrist_dev_r	arm_flex_l	arm_add_l	arm_rot_l	elbow_flex_l	pro_sup_l	wrist_flex_l	wrist_dev_l
22.8006023	315.7738991838599	3.815904736251307	70.58420205939524	0.2341366603171506	0.04326292228651554	-1.326684523481465	-156.671947187263	-132.3328250485477	-63.17468764113382	5.899560354604904	2.451982624139334	1.987972377786656	0	198.1670026512871	128.1343083376099	-307.8029278707639	9.793848132074926	-0.4439473045988533	4.250290820099795	0	-21.37711699760957	1.659277491615732	3.206407148933037	0	0	0	88.09376940541159	-14.99657410553618	-0.3713196657825233	74.7457811372232	44.99459445845159	0	4.997762221608417	88.11981895240491	-15.03436207884863	-0.4976059137095588	74.73332010471941	45.00282595462556	0	4.997762221608417
22.9675058	329.8102422090787	18.7259388907753	64.82190675667771	0.2341366603171506	0.04326292228651554	-1.326684523481465	-174.6269781488364	-139.9522588471725	-61.69083661050451	5.899560354604904	2.451982624139334	1.987972377786656	0	181.0773146033662	135.6446223130374	-310.3559342098659	9.793848132074926	-0.4439473045988533	4.250290820099795	0	-21.37711699760957	1.659277491615732	3.206407148933037	0	0	0	88.09380293595672	-14.99657428127741	-0.371293796656087	74.7458065914622	44.99459595032709	0	4.997763604004949	88.1198520246401	-15.03436031613976	-0.4975712460004218	74.7333468058155	45.00282517479763	0	4.997763604004949
23.1344348	351.2223830660989	33.98280608785292	60.09358561648634	0.2341366603171506	0.04326292228651554	-1.326684523481465	-199.4451924906163	-150.4923366299483	-66.09205304520533	5.899560354604904	2.451982624139334	1.987972377786656	0	156.4788108127677	146.4249464145925	-306.7530936319295	9.793848132074926	-0.4439473045988533	4.250290820099795	0	-21.37711699760957	1.659277491615732	3.206407148933037	0	0	0	88.0938377475906	-14.99657446384849	-0.3712669174837929	74.74583304465976	44.99459750136598	0	4.997765041258939	88.11988636045345	-15.03435848492646	-0.4975352247090841	74.73337455480332	45.00282436404399	0	4.997765041258939
23.3002788	384.9224328231018	46.54750447446482	37.74870644572514	0.2341366603171506	0.04326292228651554	-1.326684523481465	-222.7865883841413	-160.0885854675985	-59.63786099710848	5.899560354604904	2.451982624139334	1.987972377786656	0	134.0178488053329	155.6357776379666	-314.1277278978056	9.793848132074926	-0.4439473045988533	4.250290820099795	0	-21.37711699760957	1.659277491615732	3.206407148933037	0	0	0	88.09386953611443	-14.99657463001035	-0.3712424783394124	74.74585706842294	44.99459890546908	0	4.997766339161257	88.11991771447842	-15.03435681830006	-0.4975024733485679	74.73339975535258	45.0028236300961	0	4.997766339161257
23.4503763	423.2072897244857	36.98498568534736	15.36893729156041	0.2341366603171506	0.04326292228651554	-1.326684523481465	-241.2646471982178	-175.7926185382397	-45.27576926706806	5.899560354604904	2.451982624139334	1.987972377786656	0	117.0076363314984	170.7276584448461	-329.4980262235622	9.793848132074926	-0.4439473045988533	4.250290820099795	0	-21.37711699760957	1.659277491615732	3.206407148933037	0	0	0	88.09415502063158	-14.99657613005673	-0.371021603923201	74.74607439579611	44.99461160034685	0	4.99777800670727	88.12019929686474	-15.03434177262652	-0.497206475333667	74.73362772834538	45.00281699427394	0	4.99777800670727
23.6145547	460.0597017102557	19.18700178645323	-1.508491802491245	0.2341366603171506	0.04326292228651554	-1.326684523481465	-271.3909782776715	-181.8191398398034	-25.45507558771308	5.899560354604904	2.451982624139334	1.987972377786656	0	88.72102871010469	176.4695512560675	-349.5160724547883	9.793848132074926	-0.4439473045988533	4.250290820099795	0	-21.37711699760957	1.659277491615732	3.206407148933037	0	0	0	88.09443526671654	-14.99657760151836	-0.3708050120670545	74.7462873986678	44.99462401102196	0	4.997789366119313	88.12047571242097	-15.03432701366199	-0.4969162164709497	74.73385116500326	45.00281050700924	0	4.997789366119313
